<svg width="24" height="25" viewBox="0 0 24 25" fill="none" xmlns="http://www.w3.org/2000/svg">
<g clip-path="url(#clip0_452_245)">
<path d="M24 12.1143C24 5.48688 18.6274 0.114258 12 0.114258C5.37262 0.114258 0 5.48688 0 12.1143C0 18.1038 4.38825 23.0683 10.125 23.9685V15.583H7.07812V12.1143H10.125V9.47051C10.125 6.46301 11.9166 4.80176 14.6576 4.80176C15.9705 4.80176 17.3438 5.03613 17.3438 5.03613V7.98926H15.8306C14.3399 7.98926 13.875 8.91429 13.875 9.86332V12.1143H17.2031L16.6711 15.583H13.875V23.9685C19.6117 23.0683 24 18.1039 24 12.1143Z" fill="#1877F2"/>
<path d="M16.6711 15.583L17.2031 12.1143H13.875V9.86332C13.875 8.9142 14.3399 7.98926 15.8306 7.98926H17.3438V5.03613C17.3438 5.03613 15.9705 4.80176 14.6575 4.80176C11.9166 4.80176 10.125 6.46301 10.125 9.47051V12.1143H7.07812V15.583H10.125V23.9685C10.7453 24.0657 11.3722 24.1144 12 24.1143C12.6278 24.1144 13.2547 24.0657 13.875 23.9685V15.583H16.6711Z" fill="white"/>
</g>
<defs>
<clipPath id="clip0_452_245">
<rect width="24" height="24" fill="white" transform="translate(0 0.114258)"/>
</clipPath>
</defs>
</svg>
