<svg width="24" height="25" viewBox="0 0 24 25" fill="none" xmlns="http://www.w3.org/2000/svg">
<path d="M21.8055 10.1558H21V10.1143H12V14.1143H17.6515C16.827 16.4428 14.6115 18.1143 12 18.1143C8.6865 18.1143 6 15.4278 6 12.1143C6 8.80076 8.6865 6.11426 12 6.11426C13.5295 6.11426 14.921 6.69126 15.9805 7.63376L18.809 4.80526C17.023 3.14076 14.634 2.11426 12 2.11426C6.4775 2.11426 2 6.59176 2 12.1143C2 17.6368 6.4775 22.1143 12 22.1143C17.5225 22.1143 22 17.6368 22 12.1143C22 11.4438 21.931 10.7893 21.8055 10.1558Z" fill="#FFC107"/>
<path d="M3.15283 7.45976L6.43833 9.86926C7.32733 7.66826 9.48033 6.11426 11.9998 6.11426C13.5293 6.11426 14.9208 6.69126 15.9803 7.63376L18.8088 4.80526C17.0228 3.14076 14.6338 2.11426 11.9998 2.11426C8.15883 2.11426 4.82783 4.28276 3.15283 7.45976Z" fill="#FF3D00"/>
<path d="M12.0002 22.1144C14.5832 22.1144 16.9302 21.1259 18.7047 19.5184L15.6097 16.8994C14.5721 17.6889 13.3039 18.1158 12.0002 18.1144C9.39916 18.1144 7.19066 16.4559 6.35866 14.1414L3.09766 16.6539C4.75266 19.8924 8.11366 22.1144 12.0002 22.1144Z" fill="#4CAF50"/>
<path d="M21.8055 10.1558H21V10.1143H12V14.1143H17.6515C17.2571 15.2225 16.5467 16.1908 15.608 16.8998L15.6095 16.8988L18.7045 19.5178C18.4855 19.7168 22 17.1143 22 12.1143C22 11.4438 21.931 10.7893 21.8055 10.1558Z" fill="#1976D2"/>
</svg>
